<svg width="80" height="81" viewBox="0 0 80 81" fill="none" xmlns="http://www.w3.org/2000/svg">
<rect x="0.5" y="1" width="79" height="79" rx="11.5" fill="#262529"/>
<rect x="0.5" y="1" width="79" height="79" rx="11.5" stroke="#28272B"/>
<path d="M35.0007 23.8333H45.0007C53.334 23.8333 56.6673 27.1666 56.6673 35.4999V45.4999C56.6673 53.8333 53.334 57.1666 45.0007 57.1666H35.0007C26.6673 57.1666 23.334 53.8333 23.334 45.4999V35.4999C23.334 27.1666 26.6673 23.8333 35.0007 23.8333Z" stroke="#E5CB9B" stroke-width="2" stroke-linecap="round" stroke-linejoin="round"/>
<path d="M34.2832 45.95L45.1832 35.05" stroke="#E5CB9B" stroke-width="2" stroke-linecap="round" stroke-linejoin="round"/>
<path d="M34.966 37.7833C36.0982 37.7833 37.016 36.8656 37.016 35.7334C37.016 34.6012 36.0982 33.6833 34.966 33.6833C33.8339 33.6833 32.916 34.6012 32.916 35.7334C32.916 36.8656 33.8339 37.7833 34.966 37.7833Z" stroke="#E5CB9B" stroke-width="2" stroke-linecap="round" stroke-linejoin="round"/>
<path d="M45.8664 47.3168C46.9986 47.3168 47.9164 46.3989 47.9164 45.2668C47.9164 44.1346 46.9986 43.2168 45.8664 43.2168C44.7342 43.2168 43.8164 44.1346 43.8164 45.2668C43.8164 46.3989 44.7342 47.3168 45.8664 47.3168Z" stroke="#E5CB9B" stroke-width="2" stroke-linecap="round" stroke-linejoin="round"/>
</svg>
